<svg version="1" xmlns="http://www.w3.org/2000/svg" width="933.333" height="933.333" viewBox="0 0 700.000000 700.000000"><path d="M457.4 84.8c-3.4 5.9-11.9 20.6-18.9 32.7-7 12.1-13.7 23.6-14.7 25.5-1.1 1.9-8.7 15-16.8 29-8.1 14-15.6 27.1-16.7 29-1.1 1.9-4.6 8-7.8 13.5-27.7 47.7-34.5 59.8-34.5 60.6 0 .5-.4.9-1 .9-.5 0-1 .4-1 .9 0 .9-7.6 14.2-12.7 22.3L331 303h-27.6l-6.4-11.2c-3.6-6.2-7.7-13.2-9.1-15.7-3.9-6.9-36.9-64.2-38.9-67.6-1-1.7-5.6-9.5-10.2-17.5-4.5-7.9-9.6-16.8-11.3-19.6-1.6-2.9-7.7-13.3-13.4-23.3-9-15.6-10.6-17.9-11.6-16.3-1.2 1.7-33.6 57.7-38 65.7-1.3 2.2-5.4 9.4-9.2 16-3.9 6.6-9.5 16.3-12.5 21.5-3 5.2-8.9 15.3-13 22.5-16.9 29.1-19.2 33.2-21.7 37.5-1.4 2.5-3 5.3-3.6 6.2-.5.8-3.7 2.3-7 3.3-7.9 2.3-13.6 5.7-18.4 11.2-8.3 9.4-10.2 15.4-10.5 33.7l-.3 14.4-7 12.4c-3.9 6.7-11.2 19.5-16.3 28.3-12.5 21.5-32.1 55.5-33.4 58-.6 1.1-1.6 2.7-2.2 3.5-.6.8-3 4.9-5.2 9l-4.1 7.5 33.2-.1c18.3 0 33.7.1 34.2.3.7.2 1 18.4 1 52.1 0 28.4.3 54.4.8 57.7 2.2 17.2 15.9 31 32.9 33.4 3.5.4 119.7.8 258.3.7l252-.1 5.8-2.4c10.6-4.2 19.4-13 23.4-23.1 1.6-4.1 1.8-9.9 2.1-61.6l.3-57h27.5c15.2.1 27.8-.2 28-.5.1-.3-1.2-2.9-3.1-5.7-1.9-2.8-3.5-5.3-3.5-5.6 0-.2-4.5-8.2-10-17.6-5.5-9.5-10-17.4-10-17.6 0-.3-5.1-9-9-15.4-.5-.8-5.1-8.9-10.4-18l-9.4-16.5-.4-26.5-.4-26.5-3-6.5c-6.8-14.4-19.4-22.4-36.4-22.9-4.1-.1-7.6-.3-7.7-.4-.2-.2-60.8-105.1-64.8-112.2-1.2-2.2-3.7-6.5-5.5-9.5-3.2-5.4-5-8.5-8.9-15.4-1.1-1.9-7.9-13.7-15.2-26.3-7.2-12.5-14.3-24.9-15.8-27.4-1.4-2.5-6.9-12.1-12.1-21.2-5.2-9.1-9.7-16.6-10-16.7-.3 0-3.3 4.9-6.6 10.8z"/></svg>